{"title":"47 Ronin 2013 SUBBED CAM MP3 XviD-SSDD","uid":9470990,"size":731802574,"categoryP":"video","categoryS":"movies","magnet":"?xt=urn:btih:640513c91d20b53e4400d72006168080a859dd3d&amp;dn=47+Ronin+2013+SUBBED+CAM+MP3+XviD-SSDD&amp;tr=udp%3A%2F%2Ftracker.openbittorrent.com%3A80&amp;tr=udp%3A%2F%2Fopen.demonii.com%3A1337&amp;tr=udp%3A%2F%2Ftracker.coppersurfer.tk%3A6969&amp;tr=udp%3A%2F%2Fexodus.desync.com%3A6969","seeders":23,"leechers":0,"uploader":"xxxlavalxxx","files":-1,"time":1389568774,"description":" &lt;a href=&quot;\nhttp://www.imdb.com/title/tt1335975/&quot; rel=&quot;nofollow&quot; target=&quot;_NEW&quot;&gt;\nhttp://www.imdb.com/title/tt1335975/&lt;/a&gt;\n\n\nA band of samurai set out to avenge the death and dishonor of their master at the hands of a ruthless shogun.\n\nDirector: Carl Rinsch\nWriters: Chris Morgan (screenplay), Hossein Amini (screenplay)\nStars: Keanu Reeves, Hiroyuki Sanada, Ko Shibasaki\nGenres: Action | Adventure | Fantasy\nCountry: USA\nLanguage: English | Japanese\n\n\nSource - A Friend\n\nPlot - A band of samurai set out to avenge the death and dishonor of their master at the hands of a ruthless shogun.\n\nNOTES - Enjoy :) Stripped Video then Resized, Tweaked, Sharpened, then muxed back the MP3 Audio, Has foreign subs hardcoded.  Does have a little flicker to it, Video-6 Audio-6 IMO.\n\nGeneral\nComplete name                            : 47 Ronin 2013 SUBBED CAM MP3 XviD-SSDD.avi\nFormat                                   : AVI\nFormat/Info                              : Audio Video Interleave\nFile size                                : 698 MiB\nDuration                                 : 1h 49mn\nOverall bit rate                         : 893 Kbps\n\nVideo\nID                                       : 0\nFormat                                   : MPEG-4 Visual\nFormat profile                           : Advanced Simple@L5\nFormat settings, BVOP                    : 2\nFormat settings, QPel                    : No\nFormat settings, GMC                     : No warppoints\nFormat settings, Matrix                  : Default (H.263)\nMuxing mode                              : Packed bitstream\nCodec ID                                 : XVID\nCodec ID/Hint                            : XviD\nDuration                                 : 1h 49mn\nBit rate                                 : 772 Kbps\nWidth                                    : 720 pixels\nHeight                                   : 304 pixels\nDisplay aspect ratio                     : 2.35:1\nFrame rate                               : 25.000 fps\nColor space                              : YUV\nChroma subsampling                       : 4:2:0\nBit depth                                : 8 bits\nScan type                                : Progressive\nCompression mode                         : Lossy\nBits/(Pixel*Frame)                       : 0.141\nStream size                              : 603 MiB (86%)\n\nAudio\nID                                       : 1\nFormat                                   : MPEG Audio\nFormat version                           : Version 1\nFormat profile                           : Layer 3\nMode                                     : Joint stereo\nMode extension                           : MS Stereo\nCodec ID                                 : 55\nCodec ID/Hint                            : MP3\nDuration                                 : 1h 49mn\nBit rate mode                            : Constant\nBit rate                                 : 112 Kbps\nChannel(s)                               : 2 channels\nSampling rate                            : 48.0 KHz\nCompression mode                         : Lossy\nStream size                              : 87.5 MiB (13%)\n\n\n\nscreens\n &lt;a href=&quot;\nhttp://i.imgur.com/EIiELkb.png&quot; rel=&quot;nofollow&quot; target=&quot;_NEW&quot;&gt;\nhttp://i.imgur.com/EIiELkb.png&lt;/a&gt; &lt;a href=&quot;\nhttp://i.imgur.com/wH8Mie9.png&quot; rel=&quot;nofollow&quot; target=&quot;_NEW&quot;&gt;\nhttp://i.imgur.com/wH8Mie9.png&lt;/a&gt; &lt;a href=&quot;\nhttp://i.imgur.com/Nmvh3To.png&quot; rel=&quot;nofollow&quot; target=&quot;_NEW&quot;&gt;\nhttp://i.imgur.com/Nmvh3To.png&lt;/a&gt; &lt;a href=&quot;\nhttp://i.imgur.com/WRjgSzE.png&quot; rel=&quot;nofollow&quot; target=&quot;_NEW&quot;&gt;\nhttp://i.imgur.com/WRjgSzE.png&lt;/a&gt;","torrent":{"xt":"urn:btih:640513c91d20b53e4400d72006168080a859dd3d","amp;dn":"47+Ronin+2013+SUBBED+CAM+MP3+XviD-SSDD","amp;tr":["udp%3A%2F%2Ftracker.openbittorrent.com%3A80","udp%3A%2F%2Fopen.demonii.com%3A1337","udp%3A%2F%2Ftracker.coppersurfer.tk%3A6969","udp%3A%2F%2Fexodus.desync.com%3A6969"],"infoHash":"640513c91d20b53e4400d72006168080a859dd3d","infoHashBuffer":{"type":"Buffer","data":[100,5,19,201,29,32,181,62,68,0,215,32,6,22,128,128,168,89,221,61]},"announce":[],"urlList":[]}}